<svg width="26" height="26" viewBox="0 0 26 26" fill="none" xmlns="http://www.w3.org/2000/svg">
<path d="M14.6209 0C14.954 0 15.2103 0.273 15.2103 0.598V4.784C15.2103 7.163 17.145 9.113 19.4898 9.126C20.4636 9.126 21.2324 9.139 21.8218 9.139L22.0401 9.13804C22.434 9.13503 22.9643 9.126 23.4234 9.126C23.7437 9.126 24 9.386 24 9.711V20.163C24 23.387 21.4246 26 18.2469 26H8.04776C4.71637 26 2 23.257 2 19.877V5.863C2 2.639 4.58824 0 7.77868 0H14.6209ZM15.9918 16.77H9.02155C8.49621 16.77 8.06057 17.199 8.06057 17.732C8.06057 18.265 8.49621 18.707 9.02155 18.707H15.9918C16.5172 18.707 16.9528 18.265 16.9528 17.732C16.9528 17.199 16.5172 16.77 15.9918 16.77ZM13.3524 10.27H9.02155C8.49621 10.27 8.06057 10.712 8.06057 11.245C8.06057 11.778 8.49621 12.207 9.02155 12.207H13.3524C13.8777 12.207 14.3133 11.778 14.3133 11.245C14.3133 10.712 13.8777 10.27 13.3524 10.27ZM17.0774 1.1778C17.0774 0.6175 17.7475 0.3393 18.1306 0.7436C19.5157 2.2048 21.9361 4.7593 23.2891 6.1867C23.6633 6.5806 23.3891 7.2345 22.8496 7.2358C21.7964 7.2397 20.5548 7.2358 19.6618 7.2267C18.2446 7.2267 17.0774 6.0424 17.0774 4.6046V1.1778Z" fill="white"/>
</svg>
