<svg width="26" height="26" viewBox="0 0 26 26" fill="none" xmlns="http://www.w3.org/2000/svg">
<path d="M20.8325 16.5316L18.0808 16.2175C17.7573 16.1795 17.4293 16.2153 17.1216 16.3222C16.8139 16.4292 16.5344 16.6045 16.3042 16.835L14.3108 18.8283C11.2355 17.2642 8.73578 14.7645 7.17168 11.6891L9.17585 9.68497C9.64168 9.21914 9.86918 8.56914 9.79335 7.90831L9.47918 5.17831C9.41776 4.64983 9.16414 4.16239 8.7666 3.80881C8.36907 3.45522 7.85538 3.26017 7.32335 3.2608H5.44918C4.22501 3.2608 3.20668 4.27914 3.28251 5.50331C3.85668 14.755 11.2558 22.1433 20.4967 22.7175C21.7208 22.7933 22.7392 21.775 22.7392 20.5508V18.6766C22.75 17.5825 21.9267 16.6616 20.8325 16.5316Z" fill="white"/>
</svg>
