<svg width="128" height="40" viewBox="0 0 128 40" fill="none" xmlns="http://www.w3.org/2000/svg">
<path d="M127.414 19.8111C127.414 23.4545 126.706 26.5281 125.289 29.0316C123.872 31.5245 121.96 33.4155 119.552 34.7045C117.144 35.983 114.46 36.6222 111.498 36.6222C108.515 36.6222 105.82 35.9776 103.412 34.6886C101.015 33.3889 99.1082 31.4925 97.6913 28.9996C96.285 26.4961 95.5819 23.4332 95.5819 19.8111C95.5819 16.1676 96.285 13.0994 97.6913 10.6065C99.1082 8.10298 101.015 6.212 103.412 4.93359C105.82 3.64453 108.515 3 111.498 3C114.46 3 117.144 3.64453 119.552 4.93359C121.96 6.212 123.872 8.10298 125.289 10.6065C126.706 13.0994 127.414 16.1676 127.414 19.8111ZM118.274 19.8111C118.274 17.8509 118.013 16.1996 117.491 14.8572C116.979 13.5043 116.218 12.4815 115.205 11.7891C114.204 11.0859 112.968 10.7344 111.498 10.7344C110.028 10.7344 108.787 11.0859 107.775 11.7891C106.773 12.4815 106.012 13.5043 105.49 14.8572C104.978 16.1996 104.723 17.8509 104.723 19.8111C104.723 21.7713 104.978 23.4279 105.49 24.7809C106.012 26.1232 106.773 27.146 107.775 27.8491C108.787 28.5416 110.028 28.8878 111.498 28.8878C112.968 28.8878 114.204 28.5416 115.205 27.8491C116.218 27.146 116.979 26.1232 117.491 24.7809C118.013 23.4279 118.274 21.7713 118.274 19.8111Z" fill="white"/>
<path d="M82.2026 14.25C82.0641 13.6854 81.8457 13.19 81.5474 12.7638C81.2491 12.3271 80.8762 11.9595 80.4288 11.6612C79.992 11.3523 79.4806 11.1232 78.8947 10.9741C78.3194 10.8143 77.6855 10.7344 76.993 10.7344C75.5016 10.7344 74.2285 11.0913 73.1738 11.805C72.1298 12.5188 71.3308 13.5469 70.7768 14.8892C70.2335 16.2315 69.9618 17.8509 69.9618 19.7472C69.9618 21.6648 70.2228 23.3054 70.7448 24.669C71.2668 26.0327 72.0445 27.0767 73.0779 27.8011C74.1113 28.5256 75.395 28.8878 76.9291 28.8878C78.2821 28.8878 79.406 28.6907 80.3009 28.2965C81.2065 27.9023 81.883 27.343 82.3304 26.6186C82.7778 25.8942 83.0016 25.0419 83.0016 24.0618L84.5357 24.2216H77.057V17.8935H91.5669V22.4318C91.5669 25.4148 90.933 27.9663 89.6653 30.0863C88.4082 32.1957 86.6717 33.815 84.4558 34.9442C82.2505 36.0629 79.7203 36.6222 76.8652 36.6222C73.6798 36.6222 70.8833 35.9457 68.4756 34.5927C66.068 33.2397 64.1876 31.3114 62.8347 28.8079C61.4923 26.3043 60.8212 23.3267 60.8212 19.875C60.8212 17.169 61.2313 14.772 62.0516 12.6839C62.8826 10.5959 64.0332 8.83274 65.5033 7.39453C66.9735 5.94567 68.6727 4.85369 70.601 4.11861C72.5293 3.37287 74.596 3 76.8013 3C78.7402 3 80.5406 3.27699 82.2026 3.83097C83.8751 4.37429 85.3506 5.15199 86.6291 6.16406C87.9181 7.16548 88.9568 8.35334 89.7452 9.72763C90.5335 11.1019 91.0129 12.6094 91.1834 14.25H82.2026Z" fill="white"/>
<path d="M56.8381 19.8111C56.8381 23.4545 56.1297 26.5281 54.7128 29.0316C53.2959 31.5245 51.3836 33.4155 48.9759 34.7045C46.5682 35.983 43.8836 36.6222 40.9219 36.6222C37.939 36.6222 35.2437 35.9776 32.836 34.6886C30.439 33.3889 28.532 31.4925 27.1151 28.9996C25.7089 26.4961 25.0057 23.4332 25.0057 19.8111C25.0057 16.1676 25.7089 13.0994 27.1151 10.6065C28.532 8.10298 30.439 6.212 32.836 4.93359C35.2437 3.64453 37.939 3 40.9219 3C43.8836 3 46.5682 3.64453 48.9759 4.93359C51.3836 6.212 53.2959 8.10298 54.7128 10.6065C56.1297 13.0994 56.8381 16.1676 56.8381 19.8111ZM47.6975 19.8111C47.6975 17.8509 47.4365 16.1996 46.9145 14.8572C46.4031 13.5043 45.6414 12.4815 44.6293 11.7891C43.6279 11.0859 42.3921 10.7344 40.9219 10.7344C39.4518 10.7344 38.2106 11.0859 37.1986 11.7891C36.1971 12.4815 35.4354 13.5043 34.9134 14.8572C34.402 16.1996 34.1464 17.8509 34.1464 19.8111C34.1464 21.7713 34.402 23.4279 34.9134 24.7809C35.4354 26.1232 36.1971 27.146 37.1986 27.8491C38.2106 28.5416 39.4518 28.8878 40.9219 28.8878C42.3921 28.8878 43.6279 28.5416 44.6293 27.8491C45.6414 27.146 46.4031 26.1232 46.9145 24.7809C47.4365 23.4279 47.6975 21.7713 47.6975 19.8111Z" fill="white"/>
<path d="M0.699951 36.1747V3.44743H9.58489V29.0156H22.8164V36.1747H0.699951Z" fill="white"/>
</svg>
